# xmcd CD database file
#
# Track frame offsets:
#	150
#	14283
#	26345
#	39473
#	52995
#	65763
#	78435
#	89851
#	103588
#	116330
#	129395
#	140984
#	152429
#	163987
#	177170
#	189986
#	202519
#	215361
#	228821
#
# Disc length: 3208 seconds
#
# Revision: 0
# Processed by: cddbd v1.5.2PL0 Copyright (c) Steve Scherf et al.
# Submitted via: CDex 2.14
#
DISCID=f70c8613
DTITLE=Lil Green - 1942-1946
DYEAR=2004
DGENRE=Blues
TTITLE0=99 Blues
TTITLE1=Don't Know What I Will Do
TTITLE2=You Got Me To The Place
TTITLE3=Keep Your Hand On Your Heart
TTITLE4=I Have A Place To Go
TTITLE5=If You Want To Share Your Love
TTITLE6=If I'm A Fool
TTITLE7=I'm Wasting My Time On You
TTITLE8=I'm Wasting My Time On You (Faster Version)
TTITLE9=No, Baby, Nobody But You
TTITLE10=Boy Friend
TTITLE11=Now What Do You Think
TTITLE12=Mr. Jackson From Jacksonville
TTITLE13=It's Bad With My Man And Me
TTITLE14=Blowtop Blues
TTITLE15=How Come You Do Me Like You Do
TTITLE16=That Old Feeling
TTITLE17=Last Go Round Blues
TTITLE18=No Good Man
EXTD=YEAR: 2004
EXTT0=
EXTT1=
EXTT2=
EXTT3=
EXTT4=
EXTT5=
EXTT6=
EXTT7=
EXTT8=
EXTT9=
EXTT10=
EXTT11=
EXTT12=
EXTT13=
EXTT14=
EXTT15=
EXTT16=
EXTT17=
EXTT18=
PLAYORDER=
